<svg width="157" height="22" viewBox="0 0 157 22" fill="none" xmlns="http://www.w3.org/2000/svg">
<path d="M149.444 10.7279L149.268 11L149.444 11.2721L149.954 12.0578C150.104 12.2895 150.414 12.3555 150.646 12.2052L152.65 15.2948C152.418 15.4451 152.352 15.7548 152.503 15.9864L153.522 17.5578C153.672 17.7895 153.982 17.8555 154.214 17.7052L156.218 20.7948C155.986 20.9451 155.921 21.2548 156.071 21.4864L156.08 21.5H155.98C155.704 21.5 155.48 21.7239 155.48 22H151.383C151.383 21.7239 151.159 21.5 150.883 21.5H148.844C148.568 21.5 148.344 21.7239 148.344 22H144.247C144.247 21.7239 144.023 21.5 143.747 21.5H141.708C141.432 21.5 141.208 21.7239 141.208 22H137.11C137.11 21.7239 136.887 21.5 136.61 21.5H134.571C134.295 21.5 134.071 21.7239 134.071 22H129.974C129.974 21.7239 129.75 21.5 129.474 21.5H127.435C127.159 21.5 126.935 21.7239 126.935 22H122.838C122.838 21.7239 122.614 21.5 122.338 21.5H120.299C120.023 21.5 119.799 21.7239 119.799 22H115.701C115.701 21.7239 115.477 21.5 115.201 21.5H113.162C112.886 21.5 112.662 21.7239 112.662 22H108.565C108.565 21.7239 108.341 21.5 108.065 21.5H106.026C105.75 21.5 105.526 21.7239 105.526 22H101.429C101.429 21.7239 101.205 21.5 100.929 21.5H98.8896C98.6135 21.5 98.3896 21.7239 98.3896 22H94.2922C94.2922 21.7239 94.0684 21.5 93.7922 21.5H91.7533C91.4771 21.5 91.2533 21.7239 91.2533 22H87.1558C87.1558 21.7239 86.932 21.5 86.6558 21.5H84.6169C84.3407 21.5 84.1169 21.7239 84.1169 22H80.0195C80.0195 21.7239 79.7956 21.5 79.5195 21.5H77.4805C77.2044 21.5 76.9805 21.7239 76.9805 22H72.8831C72.8831 21.7239 72.6593 21.5 72.3831 21.5H70.3441C70.068 21.5 69.8441 21.7239 69.8441 22H65.7467C65.7467 21.7239 65.5229 21.5 65.2467 21.5H63.2078C62.9316 21.5 62.7078 21.7239 62.7078 22H58.6104C58.6104 21.7239 58.3865 21.5 58.1104 21.5H56.0714C55.7953 21.5 55.5714 21.7239 55.5714 22H51.474C51.474 21.7239 51.2502 21.5 50.974 21.5H48.9351C48.6589 21.5 48.4351 21.7239 48.4351 22H44.3377C44.3377 21.7239 44.1138 21.5 43.8377 21.5H41.7987C41.5226 21.5 41.2987 21.7239 41.2987 22H37.2013C37.2013 21.7239 36.9774 21.5 36.7013 21.5H34.6623C34.3862 21.5 34.1623 21.7239 34.1623 22H30.0649C30.0649 21.7239 29.8411 21.5 29.5649 21.5H27.526C27.2498 21.5 27.026 21.7239 27.026 22H22.9286C22.9286 21.7239 22.7047 21.5 22.4286 21.5H20.3896C20.1135 21.5 19.8896 21.7239 19.8896 22H15.7922C15.7922 21.7239 15.5683 21.5 15.2922 21.5H13.2532C12.9771 21.5 12.7532 21.7239 12.7532 22H8.65584C8.65584 21.7239 8.43199 21.5 8.15584 21.5H6.11688C5.84074 21.5 5.61688 21.7239 5.61688 22H1.51948C1.51948 21.7239 1.29562 21.5 1.01948 21.5H0.955887L0.956263 21.4995C1.11376 21.2726 1.05756 20.9611 0.830731 20.8036L2.98819 17.6964C3.21501 17.8539 3.52657 17.7977 3.68406 17.5709L4.77518 15.9995C4.93268 15.7726 4.87647 15.4611 4.64965 15.3036L6.80711 12.1964C7.03393 12.3539 7.34549 12.2977 7.50298 12.0709L8.04854 11.2852L8.24655 11L8.04854 10.7148L7.50298 9.92911C7.34549 9.70229 7.03393 9.64609 6.80711 9.80358L4.64965 6.69642C4.87648 6.53892 4.93268 6.22737 4.77518 6.00054L3.68406 4.42911C3.52657 4.20229 3.21501 4.14609 2.98819 4.30358L0.830731 1.19642C1.05756 1.03892 1.11376 0.727368 0.956263 0.500543L0.955886 0.5H1.0195C1.29564 0.5 1.5195 0.276142 1.5195 0H5.61689C5.61689 0.276142 5.84075 0.5 6.11689 0.5H8.15586C8.432 0.5 8.65586 0.276142 8.65586 0H12.7533C12.7533 0.276142 12.9771 0.5 13.2533 0.5H15.2922C15.5683 0.5 15.7922 0.276142 15.7922 0H19.8896C19.8896 0.276142 20.1135 0.5 20.3896 0.5H22.4286C22.7047 0.5 22.9286 0.276142 22.9286 0H27.026C27.026 0.276142 27.2498 0.5 27.526 0.5H29.5649C29.8411 0.5 30.0649 0.276142 30.0649 0H34.1623C34.1623 0.276142 34.3862 0.5 34.6623 0.5H36.7013C36.9774 0.5 37.2013 0.276142 37.2013 0H41.2987C41.2987 0.276142 41.5225 0.5 41.7987 0.5H43.8377C44.1138 0.5 44.3377 0.276142 44.3377 0H48.4351C48.4351 0.276142 48.6589 0.5 48.9351 0.5H50.974C51.2502 0.5 51.474 0.276142 51.474 0H55.5714C55.5714 0.276142 55.7953 0.5 56.0714 0.5H58.1104C58.3865 0.5 58.6104 0.276142 58.6104 0H62.7078C62.7078 0.276142 62.9316 0.5 63.2078 0.5H65.2467C65.5229 0.5 65.7467 0.276142 65.7467 0H69.8442C69.8442 0.276142 70.068 0.5 70.3442 0.5H72.3831C72.6593 0.5 72.8831 0.276142 72.8831 0H76.9805C76.9805 0.276142 77.2044 0.5 77.4805 0.5H79.5195C79.7956 0.5 80.0195 0.276142 80.0195 0H84.1169C84.1169 0.276142 84.3407 0.5 84.6169 0.5H86.6559C86.932 0.5 87.1559 0.276142 87.1559 0H91.2533C91.2533 0.276142 91.4771 0.5 91.7533 0.5H93.7922C94.0684 0.5 94.2922 0.276142 94.2922 0H98.3896C98.3896 0.276142 98.6135 0.5 98.8896 0.5H100.929C101.205 0.5 101.429 0.276142 101.429 0H105.526C105.526 0.276142 105.75 0.5 106.026 0.5H108.065C108.341 0.5 108.565 0.276142 108.565 0H112.662C112.662 0.276142 112.886 0.5 113.162 0.5H115.201C115.477 0.5 115.701 0.276142 115.701 0H119.799C119.799 0.276142 120.023 0.5 120.299 0.5H122.338C122.614 0.5 122.838 0.276142 122.838 0H126.935C126.935 0.276142 127.159 0.5 127.435 0.5H129.474C129.75 0.5 129.974 0.276142 129.974 0H134.071C134.071 0.276142 134.295 0.5 134.571 0.5H136.61C136.887 0.5 137.11 0.276142 137.11 0H141.208C141.208 0.276142 141.432 0.5 141.708 0.5H143.747C144.023 0.5 144.247 0.276142 144.247 0H148.344C148.344 0.276142 148.568 0.5 148.844 0.5H150.883C151.159 0.5 151.383 0.276142 151.383 0H155.481C155.481 0.276142 155.704 0.5 155.981 0.5H156.08L156.071 0.513585C155.921 0.745246 155.986 1.05488 156.218 1.20517L154.214 4.29483C153.982 4.14453 153.672 4.2105 153.522 4.44216L152.503 6.01359C152.352 6.24525 152.418 6.55488 152.65 6.70517L150.646 9.79483C150.414 9.64453 150.104 9.7105 149.954 9.94216L149.444 10.7279Z" fill="#BDBDBD" stroke="#242424" stroke-linecap="round" stroke-dasharray="2 5"/>
</svg>
