<svg width="26" height="14" viewBox="0 0 26 14" fill="none" xmlns="http://www.w3.org/2000/svg">
<path fill-rule="evenodd" clip-rule="evenodd" d="M19.3486 2.71085L19.5421 0.580945C19.5421 0.387317 19.3486 6.10352e-05 18.5746 6.10352e-05H5.03063C4.83715 6.10352e-05 4.45018 0.154964 4.45018 0.774574H2.7088C2.57981 0.774574 2.32183 0.852025 2.32183 1.16183C2.32183 1.47163 2.57981 1.54909 2.7088 1.54909H8.51338C8.64237 1.54909 8.90035 1.62654 8.90035 1.93634C8.90035 2.24615 8.64237 2.3236 8.51338 2.3236H0.96743C0.902934 2.3236 0.773944 2.40105 0.773944 2.71085C0.773944 3.02066 0.902934 3.09811 0.96743 3.09811H7.35246C7.48145 3.09811 7.73944 3.17556 7.73944 3.48537C7.73944 3.79517 7.48145 3.87262 7.35246 3.87262H1.93486C1.80587 3.87262 1.54789 3.95007 1.54789 4.25988C1.54789 4.56968 1.80587 4.64714 1.93486 4.64714H8.90035C9.02934 4.64714 9.28732 4.76331 9.28732 5.22802C9.28732 5.69273 9.09384 5.8089 8.90035 5.8089H0.386972C0.257981 5.8089 0 5.88636 0 6.19616C0 6.50597 0.257981 6.58342 0.386972 6.58342H6.38503C6.51403 6.58342 6.77201 6.66087 6.77201 6.97067C6.77201 7.28048 6.51403 7.35793 6.38503 7.35793H4.25669C4.1277 7.35793 3.86972 7.47411 3.86972 7.93881V10.0687C3.86972 10.3269 3.98581 10.8432 4.45018 10.8432L6.19189 10.8432C6.19189 12.1265 7.23141 13.1668 8.51372 13.1668C9.79603 13.1668 10.8356 12.1265 10.8356 10.8432L19.3481 10.8432V10.8433C19.3481 12.1265 20.3877 13.1668 21.67 13.1668C22.9523 13.1668 23.9918 12.1265 23.9918 10.8433V10.8432H24.3792C24.7662 10.8432 25.5401 10.6883 25.5401 10.0687C25.5401 9.44911 25.6691 7.35793 25.7336 6.38979C25.7981 5.42165 23.2183 3.09811 23.2183 3.09811C22.8313 2.71085 22.5218 2.71085 22.0574 2.71085H19.3486ZM8.51394 12.005C9.1551 12.005 9.67486 11.4849 9.67486 10.8432C9.67486 10.2016 9.1551 9.68146 8.51394 9.68146C7.87279 9.68146 7.35303 10.2016 7.35303 10.8432C7.35303 11.4849 7.87279 12.005 8.51394 12.005ZM22.8316 10.8432C22.8316 11.4849 22.3118 12.005 21.6707 12.005C21.0295 12.005 20.5098 11.4849 20.5098 10.8432C20.5098 10.2016 21.0295 9.68146 21.6707 9.68146C22.3118 9.68146 22.8316 10.2016 22.8316 10.8432ZM19.7357 3.48534V5.80887H24.3794L22.8315 3.87259C22.7025 3.74351 22.2898 3.48534 21.6706 3.48534H19.7357Z" fill="white"/>
</svg>
